<?xml version="1.0" standalone="no"?><!DOCTYPE svg PUBLIC "-//W3C//DTD SVG 1.1//EN" "http://www.w3.org/Graphics/SVG/1.1/DTD/svg11.dtd"><svg t="1577945380023" class="icon" viewBox="0 0 1024 1024" version="1.1" xmlns="http://www.w3.org/2000/svg" p-id="2347" xmlns:xlink="http://www.w3.org/1999/xlink" width="200" height="200"><defs><style type="text/css"></style></defs><path d="M512 23C241.38 23 22 242.38 22 513s219.38 490 490 490 490-219.38 490-490S782.62 23 512 23z m152.33 689.71c19.44 19.44 19.44 50.97 0 70.41-19.44 19.44-50.97 19.44-70.41 0l-234.7-234.7c-19.44-19.44-19.44-50.97 0-70.41 0.07-0.07 0.15-0.14 0.23-0.22 0.07-0.07 0.14-0.15 0.22-0.23l234.7-234.7c19.44-19.44 50.97-19.44 70.41 0 19.44 19.44 19.44 50.97 0 70.41L464.84 513.22l199.49 199.49z" p-id="2348"></path></svg>